#!OML:ASF I:\golf\golf\golf 2\Subject 1\2002-09-07\Subject1.ASF
:FULLY-SPECIFIED
:DEGREES
233
root -6.82855 17.8646 -0.0669107 -113.99 86.5141 -130.783
lowerback 3.19122 -8.513 -3.04854
upperback 6.48553 -11.391 6.38086
thorax 7.04547 -6.00505 7.97557
lowerneck -13.9104 8.30067 6.2852
upperneck 23.8449 15.8781 -18.3661
head 12.3442 5.95409 -5.41125
rclavicle -1.21259e-014 3.75703e-014
rhumerus 7.38424 -13.2972 -83.464
rradius 83.2956
rwrist -32.9807
rhand -62.1586 20.8116
rfingers 7.12502
rthumb -34.2043 -5.92662
lclavicle -1.21259e-014 3.75703e-014
lhumerus 68.9333 -58.4888 66.5397
lradius 21.5505
lwrist -4.59917
lhand -15.097 16.6975
lfingers 7.12502
lthumb -168.929 226.386
rfemur -33.6821 -6.83649 15.9497
rtibia 33.7816
rfoot -9.81409 -7.998
rtoes -5.52017
lfemur -31.9861 9.43323 -10.7482
ltibia 28.4985
lfoot -8.87838 -2.57865
ltoes -12.1747
234
root -6.81908 17.862 -0.146245 -137.918 85.091 -154.45
lowerback 2.71528 -8.48289 -2.4134
upperback 6.49953 -11.3485 6.59678
thorax 7.23823 -5.94523 7.79651
lowerneck -13.9023 7.48964 6.55885
upperneck 24.2135 14.7433 -18.4304
head 12.3309 5.4656 -5.70917
rclavicle 1.53561e-014 8.24956e-015
rhumerus 5.62152 -12.5821 -83.8356
rradius 81.6779
rwrist -35.8265
rhand -61.5776 23.6566
rfingers 7.12502
rthumb -33.6524 -3.20368
lclavicle 1.53561e-014 8.24956e-015
lhumerus 62.8778 -58.7478 71.7673
lradius 20.7962
lwrist -5.95248
lhand -14.8878 17.1711
lfingers 7.12502
lthumb -168.727 226.848
rfemur -32.8642 -7.21079 15.0614
rtibia 33.992
rfoot -9.92518 -9.64003
rtoes -6.2364
lfemur -31.9601 8.29911 -11.3783
ltibia 27.8913
lfoot -8.75008 -3.94323
ltoes -11.854
235
root -6.8064 17.8651 -0.224694 -150.232 83.1651 -166.477
lowerback 2.20134 -8.43339 -1.739
upperback 6.47578 -11.288 6.87567
thorax 7.41712 -5.87331 7.66391
lowerneck -14.0794 6.60317 6.47364
upperneck 24.7331 13.5665 -18.3193
head 12.3604 4.92839 -5.88052
rclavicle 1.3418e-013 -8.94531e-014
rhumerus 3.83782 -11.613 -84.0899
rradius 79.9313
rwrist -38.5096
rhand -61.0642 26.6045
rfingers 7.12502
rthumb -33.1644 -0.36087
lclavicle 1.3418e-013 -8.94531e-014
lhumerus 56.5483 -58.5058 77.3641
lradius 19.9268
lwrist -7.61946
lhand -14.2449 18.489
lfingers 7.12502
lthumb -168.107 228.131
rfemur -31.9419 -7.55417 14.1906
rtibia 34.2361
rfoot -9.97402 -11.3206
rtoes -7.45038
lfemur -31.8421 7.17301 -12.0029
ltibia 27.1933
lfoot -8.52084 -5.32283
ltoes -11.6131
236
root -6.79162 17.8717 -0.2991 -156.362 81.0414 -172.308
lowerback 1.69336 -8.39283 -1.04562
upperback 6.3841 -11.2473 7.27596
thorax 7.54912 -5.8119 7.65691
lowerneck -14.1978 5.71013 6.17092
upperneck 25.299 12.4501 -18.1942
head 12.3931 4.4045 -5.99616
rclavicle 3.81667e-014 -4.49253e-014
rhumerus 2.0924 -10.649 -84.3443
rradius 78.0426
rwrist -39.9527
rhand -61.1672 24.7616
rfingers 7.12502
rthumb -33.2623 -2.18291
lclavicle 3.81667e-014 -4.49253e-014
lhumerus 51.5188 -58.2149 81.1897
lradius 19.2481
lwrist -8.12204
lhand -13.9462 19.794
lfingers 7.12502
lthumb -167.819 229.419
rfemur -30.9721 -7.75022 13.4558
rtibia 34.4804
rfoot -9.84582 -13.123
rtoes -9.13615
lfemur -31.6661 6.18398 -12.5182
ltibia 26.496
lfoot -8.35683 -6.74711
ltoes -12.1856
237
root -6.77676 17.8799 -0.36675 -159.972 78.8328 -175.604
lowerback 1.177 -8.37346 -0.378998
upperback 6.24167 -11.24 7.70145
thorax 7.64928 -5.76776 7.69195
lowerneck -14.1704 4.83175 5.87383
upperneck 25.8298 11.36 -18.0985
head 12.393 3.90111 -6.11572
rclavicle 7.03698e-014 3.89618e-014
rhumerus 0.434509 -9.55939 -84.7537
rradius 75.9514
rwrist -41.566
rhand -61.3566 18.708
rfingers 7.12502
rthumb -33.4424 -8.19776
lclavicle 7.03698e-014 3.89618e-014
lhumerus 46.8195 -57.7502 84.3729
lradius 18.7091
lwrist -8.48701
lhand -13.6677 20.2586
lfingers 7.12502
lthumb -167.55 229.868
rfemur -29.9457 -7.69353 12.774
rtibia 34.6946
rfoot -9.73748 -15.046
rtoes -9.27071
lfemur -31.3847 5.28199 -12.9782
ltibia 25.7385
lfoot -8.29659 -8.39454
ltoes -12.6619
238
root -6.75632 17.892 -0.431941 -162.004 76.6107 -177.238
lowerback 0.549455 -8.32486 0.374646
upperback 6.1309 -11.2069 8.13291
thorax 7.82934 -5.70255 7.67381
lowerneck -14.1573 3.90644 5.45641
upperneck 26.4261 10.2021 -17.864
head 12.3992 3.36714 -6.16578
rclavicle 1.7016e-013 -9.14409e-014
rhumerus -1.09998 -8.32312 -85.1216
rradius 73.7131
rwrist -43.8819
rhand -63.3907 30.7061
rfingers 7.12502
rthumb -35.3735 4.23808
lclavicle 1.7016e-013 -9.14409e-014
lhumerus 42.0268 -57.0023 87.644
lradius 18.1651
lwrist -9.34012
lhand -13.2953 22.0223
lfingers 7.12502
lthumb -167.191 231.609
rfemur -28.7978 -7.62823 12.2472
rtibia 34.9052
rfoot -10.7008 -16.5157
rtoes -3.40235
lfemur -30.9052 4.31035 -13.239
ltibia 24.8986
lfoot -8.10312 -9.96763
ltoes -11.8718
239
root -6.7282 17.9077 -0.500149 -163.958 74.4939 -178.7
lowerback -0.222097 -8.15112 1.13445
upperback 6.08275 -11.025 8.39491
thorax 8.09988 -5.55373 7.46319
lowerneck -14.0756 2.89375 5.24002
upperneck 27.0379 8.85436 -17.6083
head 12.3818 2.77493 -6.26946
rclavicle 8.74653e-015 -3.18055e-014
rhumerus -2.62445 -7.19095 -85.5156
rradius 71.4088
rwrist -46.4031
rhand -61.8631 20.9489
rfingers 7.12502
rthumb -33.9237 -5.85175
lclavicle 8.74653e-015 -3.18055e-014
lhumerus 38.3073 -56.9725 89.3332
lradius 17.8956
lwrist -9.63987
lhand -13.1393 23.3779
lfingers 7.12502
lthumb -167.041 232.955
rfemur -27.5171 -7.74699 11.6317
rtibia 35.1434
rfoot -11.7315 -17.5395
rtoes 1.22781
lfemur -30.1804 3.40646 -13.6263
ltibia 23.9593
lfoot -7.70634 -11.4988
ltoes -10.3422
